<svg width="20" height="20" viewBox="0 0 20 20" fill="none" xmlns="http://www.w3.org/2000/svg">
<path d="M9.93273 0C4.47143 0 0.00308228 4.50803 0.00308228 10.0602C0.00308228 15.0803 3.63733 19.247 8.38371 20V12.9719H5.86158V10.0602H8.38371V7.84137C8.38371 5.32129 9.86323 3.93574 12.1371 3.93574C13.2194 3.93574 14.3514 4.12651 14.3514 4.12651V6.60643H13.1003C11.869 6.60643 11.4818 7.37952 11.4818 8.17269V10.0602H14.2422L13.7954 12.9719H11.4818V20C13.8216 19.6264 15.9523 18.4192 17.4891 16.5964C19.026 14.7737 19.8677 12.4555 19.8624 10.0602C19.8624 4.50803 15.394 0 9.93273 0Z" fill="#3B5998"/>
</svg>
