<svg width="21" height="20" viewBox="0 0 21 20" fill="none" xmlns="http://www.w3.org/2000/svg">
<path d="M10.2293 0C8.92529 0 7.63408 0.265079 6.42936 0.780103C5.22464 1.29513 4.13 2.05001 3.20795 3.00165C1.34578 4.92357 0.299622 7.53026 0.299622 10.2483C0.299622 14.778 3.14943 18.6211 7.0915 19.9841C7.58799 20.0661 7.74686 19.7484 7.74686 19.4717C7.74686 19.236 7.74686 18.5904 7.74686 17.7398C4.99635 18.3547 4.4105 16.3665 4.4105 16.3665C3.95373 15.1777 3.30831 14.86 3.30831 14.86C2.40471 14.2246 3.37781 14.2451 3.37781 14.2451C4.37078 14.3168 4.89705 15.3007 4.89705 15.3007C5.76093 16.8584 7.22059 16.3972 7.78658 16.1513C7.87595 15.4851 8.13412 15.0342 8.41215 14.778C6.20776 14.5218 3.89416 13.6404 3.89416 9.73586C3.89416 8.5983 4.27148 7.6862 4.91691 6.95858C4.81761 6.70237 4.47008 5.63655 5.01621 4.25303C5.01621 4.25303 5.8503 3.97633 7.74686 5.29836C8.5313 5.07289 9.38525 4.96016 10.2293 4.96016C11.0733 4.96016 11.9272 5.07289 12.7117 5.29836C14.6082 3.97633 15.4423 4.25303 15.4423 4.25303C15.9885 5.63655 15.6409 6.70237 15.5416 6.95858C16.1871 7.6862 16.5644 8.5983 16.5644 9.73586C16.5644 13.6507 14.2409 14.5115 12.0265 14.7678C12.384 15.0855 12.7117 15.7106 12.7117 16.6637C12.7117 18.037 12.7117 19.1438 12.7117 19.4717C12.7117 19.7484 12.8706 20.0764 13.377 19.9841C17.319 18.6109 20.1589 14.778 20.1589 10.2483C20.1589 8.90245 19.9021 7.5698 19.4031 6.32643C18.9041 5.08305 18.1726 3.95329 17.2506 3.00165C16.3285 2.05001 15.2339 1.29513 14.0292 0.780103C12.8245 0.265079 11.5333 0 10.2293 0Z" fill="black"/>
</svg>
