<svg width="21" height="20" viewBox="0 0 21 20" fill="none" xmlns="http://www.w3.org/2000/svg">
<path d="M6.53007 0H14.871C18.0485 0 20.6302 2.6 20.6302 5.8V14.2C20.6302 15.7383 20.0234 17.2135 18.9433 18.3012C17.8633 19.3889 16.3984 20 14.871 20H6.53007C3.35258 20 0.770874 17.4 0.770874 14.2V5.8C0.770874 4.26174 1.37765 2.78649 2.4577 1.69878C3.53776 0.61107 5.00264 0 6.53007 0ZM6.33148 2C5.38342 2 4.47418 2.37928 3.8038 3.05442C3.13342 3.72955 2.7568 4.64522 2.7568 5.6V14.4C2.7568 16.39 4.35548 18 6.33148 18H15.0696C16.0176 18 16.9269 17.6207 17.5972 16.9456C18.2676 16.2705 18.6442 15.3548 18.6442 14.4V5.6C18.6442 3.61 17.0456 2 15.0696 2H6.33148ZM15.9136 3.5C16.2428 3.5 16.5585 3.6317 16.7913 3.86612C17.024 4.10054 17.1548 4.41848 17.1548 4.75C17.1548 5.08152 17.024 5.39946 16.7913 5.63388C16.5585 5.8683 16.2428 6 15.9136 6C15.5844 6 15.2687 5.8683 15.0359 5.63388C14.8032 5.39946 14.6724 5.08152 14.6724 4.75C14.6724 4.41848 14.8032 4.10054 15.0359 3.86612C15.2687 3.6317 15.5844 3.5 15.9136 3.5ZM10.7005 5C12.0173 5 13.2801 5.52678 14.2112 6.46447C15.1423 7.40215 15.6654 8.67392 15.6654 10C15.6654 11.3261 15.1423 12.5979 14.2112 13.5355C13.2801 14.4732 12.0173 15 10.7005 15C9.38377 15 8.12095 14.4732 7.18986 13.5355C6.25878 12.5979 5.7357 11.3261 5.7357 10C5.7357 8.67392 6.25878 7.40215 7.18986 6.46447C8.12095 5.52678 9.38377 5 10.7005 5ZM10.7005 7C9.91047 7 9.15278 7.31607 8.59413 7.87868C8.03548 8.44129 7.72163 9.20435 7.72163 10C7.72163 10.7956 8.03548 11.5587 8.59413 12.1213C9.15278 12.6839 9.91047 13 10.7005 13C11.4906 13 12.2483 12.6839 12.8069 12.1213C13.3656 11.5587 13.6794 10.7956 13.6794 10C13.6794 9.20435 13.3656 8.44129 12.8069 7.87868C12.2483 7.31607 11.4906 7 10.7005 7Z" fill="#D62976"/>
</svg>
