<svg width="18" height="18" viewBox="0 0 18 18" fill="none" xmlns="http://www.w3.org/2000/svg">
<path d="M15.9546 0C16.4813 0 16.9865 0.210714 17.3589 0.585786C17.7313 0.960859 17.9406 1.46957 17.9406 2V16C17.9406 16.5304 17.7313 17.0391 17.3589 17.4142C16.9865 17.7893 16.4813 18 15.9546 18H2.05313C1.52643 18 1.0213 17.7893 0.648865 17.4142C0.276431 17.0391 0.0671997 16.5304 0.0671997 16V2C0.0671997 1.46957 0.276431 0.960859 0.648865 0.585786C1.0213 0.210714 1.52643 0 2.05313 0H15.9546ZM15.4581 15.5V10.2C15.4581 9.33539 15.1171 8.5062 14.51 7.89483C13.903 7.28346 13.0796 6.94 12.2211 6.94C11.3771 6.94 10.394 7.46 9.91741 8.24V7.13H7.14704V15.5H9.91741V10.57C9.91741 9.8 10.533 9.17 11.2976 9.17C11.6663 9.17 12.0199 9.3175 12.2806 9.58005C12.5413 9.8426 12.6878 10.1987 12.6878 10.57V15.5H15.4581ZM3.9199 5.56C4.36233 5.56 4.78664 5.383 5.09948 5.06794C5.41233 4.75288 5.58808 4.32556 5.58808 3.88C5.58808 2.95 4.84336 2.19 3.9199 2.19C3.47484 2.19 3.04801 2.36805 2.7333 2.68499C2.41859 3.00193 2.24179 3.43178 2.24179 3.88C2.24179 4.81 2.99645 5.56 3.9199 5.56ZM5.30012 15.5V7.13H2.54961V15.5H5.30012Z" fill="#0A66C2"/>
</svg>
