<svg width="37" height="23" viewBox="0 0 37 23" fill="none" xmlns="http://www.w3.org/2000/svg">
<g clip-path="url(#clip0_1_93)">
<path d="M13.4979 2.45973H23.5022V20.5403H13.4979V2.45973Z" fill="#FF5F00"/>
<path d="M14.133 11.5002C14.133 7.82663 15.8481 4.5683 18.4841 2.45997C16.5468 0.926637 14.1013 0.000244141 11.4335 0.000244141C5.11331 0.000244141 0 5.1433 0 11.5002C0 17.8572 5.11331 23.0002 11.4335 23.0002C14.1013 23.0002 16.5468 22.0739 18.4841 20.5405C15.8481 18.4641 14.133 15.1739 14.133 11.5002Z" fill="#EB001B"/>
<path d="M37 11.5C37 17.8569 31.8867 23 25.5665 23C22.8987 23 20.4532 22.0736 18.5159 20.5403C21.1837 18.432 22.867 15.1736 22.867 11.5C22.867 7.82639 21.1519 4.56807 18.5159 2.45973C20.4532 0.9264 22.8987 7.62939e-06 25.5665 7.62939e-06C31.8867 7.62939e-06 37 5.17501 37 11.5Z" fill="#F79E1B"/>
</g>
<defs>
<clipPath id="clip0_1_93">
<rect width="37" height="23" fill="white"/>
</clipPath>
</defs>
</svg>
