<svg width="22" height="20" viewBox="0 0 22 20" fill="none" xmlns="http://www.w3.org/2000/svg">
<path d="M21.3115 2.35294C20.5469 2.76471 19.7227 3.03529 18.8688 3.16471C19.7426 2.54118 20.4178 1.55294 20.7356 0.364706C19.9114 0.952941 18.9979 1.36471 18.0347 1.6C17.2503 0.588235 16.1481 0 14.8969 0C12.5635 0 10.657 2.25882 10.657 5.04706C10.657 5.44706 10.6967 5.83529 10.7662 6.2C7.23125 5.98824 4.08355 3.97647 1.98839 0.929412C1.621 1.67059 1.41248 2.54118 1.41248 3.45882C1.41248 5.21176 2.1572 6.76471 3.30904 7.64706C2.60403 7.64706 1.94868 7.41177 1.37276 7.05882C1.37276 7.05882 1.37276 7.05882 1.37276 7.09412C1.37276 9.54118 2.84234 11.5882 4.78856 12.0471C4.43109 12.1647 4.05376 12.2235 3.66651 12.2235C3.39841 12.2235 3.1303 12.1882 2.87213 12.1294C3.40833 14.1176 4.96729 15.6 6.84399 15.6353C5.39426 17 3.55728 17.8 1.55149 17.8C1.21388 17.8 0.876274 17.7765 0.538666 17.7294C2.4253 19.1647 4.6694 20 7.07238 20C14.8969 20 19.1965 12.3059 19.1965 5.63529C19.1965 5.41177 19.1965 5.2 19.1865 4.97647C20.0206 4.27059 20.7356 3.37647 21.3115 2.35294Z" fill="#00ACEE"/>
</svg>
